<svg width="855" height="324" viewBox="0 0 855 324" fill="none" xmlns="http://www.w3.org/2000/svg">
<path d="M124.25 92.6272C125.723 92.6669 127.154 92.1353 128.244 91.1435C129.32 90.2237 130.054 88.9668 130.326 87.5771L134.52 68.661C134.683 68.0175 134.701 67.3458 134.573 66.6945C134.445 66.0431 134.173 65.4285 133.778 64.8949C133.367 64.3853 132.838 63.9838 132.236 63.7253C131.635 63.4667 130.979 63.359 130.326 63.4113H11.0234C9.52359 63.4073 8.07017 63.931 6.91755 64.8907C5.76494 65.8505 4.98659 67.1851 4.71877 68.661L0.724879 87.5771C0.56746 88.1964 0.563117 88.8448 0.712223 89.4661C0.861328 90.0875 1.1594 90.6632 1.58071 91.1435C1.98496 91.6315 2.49662 92.0194 3.07565 92.2768C3.65468 92.5341 4.28539 92.6541 4.91846 92.6272H43.1457L17.4707 211.659C17.3103 212.315 17.3041 212.998 17.4526 213.657C17.6011 214.315 17.9002 214.93 18.3265 215.454C18.7407 215.935 19.259 216.317 19.8422 216.569C20.4253 216.821 21.0581 216.937 21.6928 216.909H44.9714C46.4694 216.922 47.9241 216.407 49.0794 215.454C50.252 214.501 51.0337 213.15 51.2761 211.659L76.951 92.6272H124.25Z" fill="white"/>
<path d="M123.109 109.204C122.712 108.703 122.196 108.308 121.609 108.054C121.021 107.8 120.38 107.695 119.743 107.749H98.7464C97.2889 107.769 95.8811 108.282 94.7525 109.204C93.5352 110.136 92.7109 111.49 92.4418 112.999L71.4454 211.659C71.285 212.315 71.2788 212.999 71.4273 213.657C71.5758 214.316 71.8749 214.931 72.3012 215.454C72.7168 215.934 73.2353 216.314 73.8181 216.566C74.4009 216.818 75.0331 216.935 75.6675 216.909H96.6354C98.1016 216.94 99.5261 216.42 100.629 215.454C101.749 214.47 102.494 213.13 102.74 211.659L123.737 112.999C123.887 112.356 123.908 111.69 123.801 111.039C123.693 110.388 123.458 109.764 123.109 109.204Z" fill="white"/>
<path d="M243.211 134.939C242.423 129.306 240.375 123.923 237.22 119.19C234.197 114.757 229.985 111.266 225.068 109.119C219.26 106.712 213.008 105.564 206.724 105.752C199.746 105.473 192.81 106.955 186.555 110.06C181.285 113.011 176.479 116.721 172.291 121.073L173.974 113.113C174.136 112.465 174.153 111.789 174.025 111.133C173.897 110.478 173.626 109.858 173.233 109.318C172.845 108.835 172.347 108.452 171.782 108.199C171.217 107.946 170.599 107.831 169.98 107.863H149.84C148.406 107.87 147.021 108.385 145.932 109.318C144.773 110.283 143.994 111.628 143.735 113.113L114.152 251.546C113.986 252.192 113.964 252.867 114.087 253.522C114.211 254.178 114.476 254.799 114.865 255.341C115.291 255.838 115.828 256.229 116.432 256.482C117.037 256.734 117.692 256.842 118.345 256.796H139.969C141.394 256.785 142.769 256.269 143.849 255.341C145.008 254.376 145.786 253.031 146.046 251.546L156.116 204.527C158.613 209.119 162.469 212.826 167.156 215.14C173.014 217.913 179.45 219.243 185.927 219.02C192.651 219.127 199.327 217.875 205.555 215.34C211.305 212.929 216.543 209.443 220.988 205.069C225.622 200.474 229.476 195.154 232.399 189.32C235.572 182.95 238.04 176.253 239.759 169.348C240.472 166.694 241.043 164.326 241.557 162.215C242.07 160.104 242.498 157.736 242.897 155.082C244.103 148.43 244.209 141.626 243.211 134.939ZM210.033 155.824C209.777 157.907 209.406 160.104 209.006 162.329C208.587 164.532 208.025 166.705 207.323 168.834C205.944 173.183 204.028 177.343 201.618 181.217C199.413 184.892 196.398 188.015 192.803 190.347C188.929 192.749 184.435 193.959 179.88 193.827C175.799 194.074 171.762 192.882 168.468 190.461C165.839 188.27 164.029 185.253 163.333 181.901C162.603 178.267 162.603 174.523 163.333 170.888C163.761 168.235 164.246 165.553 164.817 162.9C165.387 160.246 166.015 157.65 166.7 155.139C167.809 150.965 169.581 146.996 171.949 143.384C174.365 139.718 177.56 136.63 181.306 134.34C185.389 131.905 190.075 130.669 194.828 130.774C198.849 130.435 202.843 131.684 205.954 134.255C208.415 136.699 209.939 139.93 210.262 143.384C210.726 147.523 210.659 151.703 210.062 155.824H210.033Z" fill="white"/>
<path d="M445.016 217.024C437.18 217.35 429.373 215.876 422.194 212.715C419.465 211.418 417.039 209.561 415.073 207.266C413.107 204.971 411.645 202.288 410.783 199.391C408.877 191.902 408.877 184.055 410.783 176.566L420.083 132.514H403.708C403.059 132.561 402.408 132.453 401.808 132.2C401.208 131.947 400.676 131.556 400.256 131.059C399.862 130.52 399.592 129.9 399.464 129.244C399.336 128.589 399.353 127.913 399.514 127.265L402.367 112.999C402.636 111.49 403.461 110.136 404.678 109.205C405.806 108.282 407.214 107.769 408.672 107.749H425.246L432.607 73.1126C432.856 71.6239 433.637 70.276 434.803 69.318C435.959 68.3644 437.413 67.8491 438.911 67.8629H459.48C460.11 67.8369 460.738 67.9543 461.316 68.2064C461.894 68.4584 462.408 68.8386 462.817 69.318C463.248 69.8391 463.549 70.454 463.698 71.1132C463.847 71.7724 463.838 72.4573 463.673 73.1126L456.142 107.749H482.387C483.021 107.693 483.659 107.796 484.242 108.05C484.826 108.305 485.335 108.702 485.725 109.205C486.086 109.759 486.331 110.382 486.444 111.034C486.556 111.687 486.535 112.355 486.381 112.999L483.529 127.265C483.261 128.741 482.482 130.075 481.33 131.035C480.177 131.995 478.724 132.518 477.224 132.514H450.978L442.078 174.227C441.436 177.233 441.045 180.286 440.908 183.357C440.804 184.432 440.939 185.516 441.304 186.533C441.669 187.549 442.255 188.472 443.019 189.234C445.256 190.796 447.979 191.505 450.693 191.231H466.64C467.262 191.197 467.882 191.315 468.449 191.573C469.015 191.831 469.511 192.223 469.892 192.715C470.273 193.217 470.536 193.798 470.665 194.415C470.793 195.032 470.782 195.669 470.634 196.281L467.268 211.802C467.033 213.277 466.286 214.62 465.157 215.597C464.061 216.557 462.648 217.075 461.191 217.052L445.016 217.024Z" fill="#F7C011"/>
<path d="M489.291 217.023C488.661 217.049 488.033 216.932 487.455 216.68C486.877 216.428 486.364 216.047 485.954 215.568C485.521 215.048 485.218 214.433 485.07 213.774C484.921 213.114 484.931 212.429 485.098 211.773L506.094 113.113C506.415 111.656 507.232 110.355 508.405 109.432C509.503 108.443 510.922 107.886 512.399 107.863H532.967C533.597 107.834 534.224 107.962 534.792 108.236C535.36 108.51 535.851 108.921 536.22 109.432C536.602 109.956 536.867 110.556 536.995 111.191C537.123 111.827 537.111 112.482 536.961 113.113L535.278 121.501C538.683 117.224 543.027 113.787 547.973 111.458C553.885 108.84 560.31 107.582 566.773 107.777H577.899C578.517 107.745 579.135 107.86 579.7 108.113C580.266 108.366 580.763 108.75 581.151 109.233C581.538 109.776 581.804 110.395 581.932 111.05C582.06 111.704 582.046 112.378 581.892 113.027L577.899 131.087C577.645 132.567 576.865 133.904 575.702 134.853C574.613 135.79 573.23 136.316 571.794 136.337H553.536C547.879 136.125 542.332 137.947 537.903 141.473C533.558 145.247 530.63 150.39 529.601 156.052L517.648 211.688C517.41 213.179 516.647 214.537 515.496 215.515C514.345 216.494 512.882 217.028 511.372 217.023H489.291Z" fill="#F7C011"/>
<path d="M581.036 217.023C580.402 217.047 579.771 216.929 579.188 216.677C578.606 216.425 578.087 216.046 577.67 215.568C577.249 215.042 576.955 214.426 576.811 213.768C576.668 213.109 576.678 212.427 576.843 211.773L597.839 113.113C598.108 111.604 598.933 110.25 600.15 109.318C601.278 108.395 602.686 107.883 604.144 107.863H625.14C625.774 107.809 626.411 107.914 626.993 108.168C627.576 108.422 628.086 108.817 628.478 109.318C628.84 109.872 629.084 110.496 629.192 111.149C629.3 111.803 629.27 112.471 629.105 113.113L608.109 211.773C607.887 213.245 607.149 214.59 606.027 215.568C604.923 216.534 603.499 217.053 602.033 217.023H581.036ZM607.282 91.0582C606.633 91.1044 605.981 90.9967 605.382 90.7438C604.782 90.491 604.25 90.1001 603.83 89.6031C603.436 89.0634 603.166 88.4439 603.038 87.7882C602.909 87.1325 602.927 86.4567 603.088 85.8085L606.654 69.0037C606.933 67.5014 607.706 66.1355 608.851 65.1234C609.981 64.1129 611.443 63.5542 612.959 63.5542H634.982C635.646 63.5145 636.31 63.6366 636.916 63.9099C637.522 64.1832 638.053 64.5997 638.463 65.1234C638.848 65.6833 639.111 66.3185 639.234 66.9872C639.357 67.656 639.337 68.3432 639.176 69.0037L635.41 85.7799C635.351 86.5269 635.132 87.2524 634.768 87.9072C634.404 88.5619 633.903 89.1306 633.299 89.5746C632.182 90.4971 630.783 91.0104 629.334 91.0297L607.282 91.0582Z" fill="#F7C011"/>
<path d="M635.154 217.024C634.524 217.05 633.896 216.932 633.317 216.68C632.739 216.428 632.226 216.048 631.816 215.569C631.384 215.049 631.081 214.434 630.932 213.774C630.783 213.114 630.793 212.429 630.96 211.774L660.572 73.1127C660.809 71.6194 661.592 70.2673 662.769 69.3181C663.849 68.3891 665.224 67.8735 666.648 67.863H687.217C687.87 67.8168 688.525 67.9243 689.13 68.177C689.734 68.4297 690.271 68.8205 690.697 69.3181C691.086 69.86 691.351 70.4806 691.475 71.1362C691.598 71.7918 691.576 72.4665 691.41 73.1127L676.519 143.442L714.718 111.459C715.862 110.56 717.052 109.722 718.284 108.948C719.694 108.168 721.296 107.802 722.905 107.892H748.58C750.805 107.892 752.06 108.843 752.346 110.745C752.438 111.803 752.233 112.865 751.754 113.813C751.275 114.76 750.541 115.556 749.635 116.109L700.283 158.735L734.516 209.52C735.057 210.238 735.375 211.1 735.431 211.998C735.486 212.896 735.277 213.79 734.83 214.57C734.369 215.403 733.676 216.083 732.835 216.529C731.994 216.975 731.042 217.167 730.094 217.081H707.015C705.503 217.206 703.991 216.835 702.707 216.025C701.841 215.395 701.096 214.611 700.511 213.714L670.842 169.691L661.827 211.66C661.581 213.13 660.835 214.47 659.716 215.454C658.613 216.421 657.188 216.94 655.722 216.91L635.154 217.024Z" fill="#F7C011"/>
<path d="M787.406 219.02C778.184 219.351 769.033 217.287 760.846 213.028C753.901 209.19 748.686 202.841 746.269 195.282C743.546 185.928 743.213 176.04 745.299 166.523C745.584 165.41 745.898 163.898 746.24 162.015C746.5 160.484 746.881 158.977 747.381 157.507C749.841 147.446 754.304 137.985 760.504 129.689C766.251 122.059 773.758 115.931 782.385 111.829C791.463 107.671 801.356 105.594 811.34 105.751C823.094 105.751 832.365 108.167 839.155 112.998C845.89 117.739 850.691 124.748 852.677 132.742C854.922 142.12 854.922 151.895 852.677 161.273L851.85 166.123C851.539 167.554 850.717 168.821 849.539 169.69C848.347 170.637 846.868 171.15 845.346 171.145H776.879C776.832 171.726 776.688 172.295 776.451 172.828C775.765 176.889 775.765 181.036 776.451 185.096C776.942 188.682 778.776 191.947 781.584 194.23C784.391 196.513 787.961 197.644 791.571 197.393C794.576 197.461 797.568 196.958 800.386 195.91C802.692 195.049 804.856 193.847 806.805 192.343C808.242 191.235 809.613 190.044 810.913 188.777C811.97 187.737 813.171 186.853 814.479 186.152C815.702 185.754 816.987 185.58 818.273 185.639H840.096C840.671 185.591 841.249 185.668 841.79 185.865C842.332 186.062 842.825 186.374 843.234 186.78C843.596 187.231 843.827 187.773 843.902 188.346C843.978 188.92 843.895 189.503 843.662 190.032C842.583 193.144 840.829 195.979 838.527 198.335C835.099 202.078 831.173 205.332 826.86 208.007C821.463 211.383 815.64 214.022 809.543 215.853C802.371 218.04 794.904 219.109 787.406 219.02ZM781.101 152.029H822.324V151.629C823.578 147.365 823.764 142.858 822.866 138.505C822.118 135.072 820.227 131.994 817.502 129.775C814.461 127.566 810.758 126.46 807.004 126.636C802.873 126.587 798.807 127.672 795.251 129.775C791.699 131.953 788.716 134.946 786.55 138.505C784.085 142.572 782.275 147 781.187 151.629L781.101 152.029Z" fill="#F7C011"/>
<path d="M337.352 144.554C335.627 143.38 334.334 141.674 333.669 139.696C333.004 137.717 333.006 135.576 333.672 133.598C336.525 126.637 428.784 7.74747 428.784 7.74747C432.578 2.61187 427.329 -1.49661 422.422 2.6404C388.874 30.9433 353.471 56.8495 318.981 84.0967C313.617 88.3193 266.033 125.895 260.727 130.346C253.11 136.737 260.727 141.53 260.727 141.53L316.242 180.104C317.96 181.284 319.248 182.991 319.912 184.967C320.575 186.943 320.579 189.082 319.922 191.06C317.069 198.021 224.81 316.911 224.81 316.911C221.016 322.046 226.237 326.155 231.172 322.018C264.721 293.715 300.124 267.809 334.614 240.561C339.977 236.339 387.561 198.763 392.867 194.312C400.456 187.921 392.867 183.128 392.867 183.128L337.352 144.554Z" fill="#F7C011"/>
</svg>
