<svg width="499" height="499" viewBox="0 0 499 499" fill="none" xmlns="http://www.w3.org/2000/svg">
<path d="M498.349 249.5C498.349 112.064 386.936 0.650823 249.5 0.650823C112.065 0.650823 0.651367 112.064 0.651367 249.5C0.651367 386.935 112.065 498.349 249.5 498.349C386.936 498.349 498.349 386.935 498.349 249.5Z" fill="#142236"/>
<path d="M305.275 171.183C307.159 171.183 308.808 170.565 310.191 169.358C311.575 168.151 312.429 166.679 312.782 164.942L317.963 141.627C318.316 139.743 317.993 138.183 317.051 136.976C316.109 135.769 314.666 135.15 312.782 135.15H312.488H285.286H165.589C163.675 135.15 161.997 135.769 160.525 136.976C159.053 138.183 158.141 139.743 157.817 141.627L152.901 164.942C152.547 166.679 152.901 168.151 153.931 169.358C154.961 170.565 156.345 171.183 158.082 171.183H205.213L173.596 317.994C173.243 319.907 173.596 321.438 174.626 322.645C175.657 323.852 177.04 324.471 178.777 324.471H207.509C209.393 324.471 211.101 323.882 212.573 322.645C214.045 321.438 214.957 319.878 215.281 317.994L246.898 171.183H305.275Z" fill="white"/>
<path d="M400.096 98.4129C394.032 92.7313 384.582 92.8785 377.576 98.7662C354.702 118.049 330.474 136.683 307.07 154.7C295.265 163.767 283.078 173.158 271.155 182.549C267.74 185.228 216.664 225.559 210.776 230.504C203.564 236.539 202.887 243.163 203.122 246.578C203.564 253.201 207.832 258.236 211.777 260.826L267.298 299.42C256.936 314.64 204.741 382.584 171.799 425.006C166.5 432.159 166.942 441.079 172.889 446.643C175.833 449.41 179.63 450.794 183.516 450.794C187.608 450.794 191.818 449.293 195.409 446.26C218.283 426.978 242.511 408.314 265.944 390.297C277.72 381.23 289.907 371.869 301.83 362.478C305.098 359.917 356.292 319.468 362.209 314.522C369.421 308.487 370.098 301.864 369.863 298.449C369.421 291.825 365.153 286.791 361.178 284.2L305.657 245.636C315.99 230.445 368.185 162.472 401.156 120.05C406.485 112.897 406.043 103.977 400.096 98.4129Z" fill="#142236"/>
<path d="M297.387 254.201C295.885 253.023 291.263 248.696 293.589 242.896C296.474 235.713 391.738 113.042 391.738 113.042C395.682 107.743 390.266 103.475 385.173 107.773C350.553 136.976 314.019 163.794 278.428 191.82C272.894 196.177 223.79 234.977 218.314 239.54C210.454 246.134 218.314 251.08 218.314 251.08L275.602 290.881C277.103 292.059 281.725 296.386 279.4 302.186C276.515 309.369 181.251 432.04 181.251 432.04C177.306 437.339 182.723 441.607 187.816 437.309C222.436 408.106 258.969 381.287 294.56 353.262C300.095 348.905 349.199 310.105 354.674 305.542C362.534 298.947 354.674 294.002 354.674 294.002L297.387 254.201Z" fill="#F7C011"/>
</svg>
