<?xml version="1.0" encoding="utf-8"?>
<!-- Generator: Adobe Illustrator 19.0.1, SVG Export Plug-In . SVG Version: 6.00 Build 0)  -->
<svg version="1.1" id="Vrstva_1" xmlns="http://www.w3.org/2000/svg" xmlns:xlink="http://www.w3.org/1999/xlink" x="0px" y="0px"
	 viewBox="0 0 550 97.5" style="enable-background:new 0 0 550 97.5;" xml:space="preserve">
<style type="text/css">
	.st0{fill:#F49900;}
</style>
<g>
	<path class="st0" d="M349.6,25c-13.7,0-25.7,8.1-27.3,9.5l-4.3-8.3h-29.3v68h36.1V48.6c0,0,3-3.4,7.4-3.9c3.7-0.4,7,1.5,7,6.6v42.9
		h36.1V49.4C375.3,37.1,369.8,25,349.6,25"/>
	<path class="st0" d="M242.3,73.8c0,0-4,3.6-10,3.6c-4.8,0-7.3-2.7-7.3-5.7c0-9.7,17.2-6.3,17.2-6.3V73.8z M241.1,25
		c-18.2,0-32.6,3.8-39.5,6.8l4.6,13.8l2.1,0.5c6.8-2.3,14.8-3.5,21.1-3.5c5.3,0,12.9,0.8,12.9,7.4v3.2c-3.5-0.6-9.8-1.2-15-1.2
		c-20.1,0-33.9,8-33.9,22.9c0,14,11.6,20.7,25.7,20.7c10.2,0,19.8-4.1,25.9-9.1l4.1,7.9h29.3V51.6C278.3,37.8,270.1,25,241.1,25"/>
	<path class="st0" d="M162,25c-11.6,0-21.5,5.7-24.8,7.9l-0.4-0.2c0.1-1.6,0.4-6.4,0.4-9.9V4.3h-36.1v21.9v36.7
		c-9.2,5.8-23.3,10.8-34.4,10.8c-18.7,0-27.6-10.1-27.6-24.9c0-17.7,12.1-24.5,24.7-24.5c9.7,0,17.5,2.7,21.1,4.2l2.6-0.6l5.4-17
		c-8.1-3.8-20.8-7.9-35.5-7.9C31.1,2.9,1,14.1,1,49.2c0,32.4,27.1,46.3,56.6,46.3c16,0,31.9-4.9,43.4-11.8v10.5h36.1V48.6
		c0,0,3-3.4,7.4-3.9c3.7-0.4,7,1.5,7,6.6v42.9h36.1V49.4C187.6,37.1,182.2,25,162,25"/>
	<path class="st0" d="M496.1,53c0.3-5.7,4.2-10.8,9.9-10.8c5.6,0,9.2,3.6,8.9,10.8H496.1z M548.8,59.1c0-19.8-13.6-34.1-42.5-34.1
		c-26.2,0-46.5,12.7-46.5,35.3c0,4,0.6,7.7,1.7,10.9c-8.1,4.7-17.3,6.7-23.5,6.7c-14.4,0-19.8-8-19.8-17.6
		c0-12.1,8.1-17.4,17.6-17.4c6.8,0,12.5,1.7,16.4,3.3l2-0.5l4.7-14c-4.1-2.2-16.3-6.8-30.2-6.8c-17.7,0-47.1,5.1-47.1,35.3
		c0,30.1,29.9,35.3,47.1,35.3c14.6,0,28.2-3.3,42.1-11.1c9.5,8,23.8,11.1,37.4,11.1c17.3,0,29.4-3.8,37-7.7l-4.7-13.6l-2.1-0.5
		c-7,2.6-14.8,4.1-23.6,4.1c-11.9,0-17.1-3.3-18.1-10.8h51.9C548.4,67,548.8,63.8,548.8,59.1"/>
</g>
</svg>
